<svg xmlns="http://www.w3.org/2000/svg" width="17.356" height="19.836" viewBox="0 0 17.356 19.836">
  <path id="Path_4155" data-name="Path 4155" d="M5.889,2.479h5.579V.93a.93.93,0,1,1,1.86,0v1.55h1.55a2.481,2.481,0,0,1,2.479,2.479v12.4a2.481,2.481,0,0,1-2.479,2.479H2.479A2.481,2.481,0,0,1,0,17.356V4.959A2.481,2.481,0,0,1,2.479,2.479h1.55V.93a.93.93,0,1,1,1.86,0ZM1.86,9.608h3.1V7.438H1.86Zm0,1.86v2.479h3.1V11.468Zm4.959,0v2.479h3.719V11.468Zm5.579,0v2.479h3.1V11.468Zm3.1-4.029H12.4v2.17h3.1Zm0,8.368H12.4v2.17h2.479a.619.619,0,0,0,.62-.62Zm-4.959,0H6.819v2.17h3.719Zm-5.579,0H1.86v1.55a.619.619,0,0,0,.62.62H4.959Zm5.579-8.368H6.819v2.17h3.719Z" fill="#c32026"/>
</svg>
